PathFileType	4	(X/Y/Z)	D:\Share\Shared_Data\Ergonomics\Sit To Stand Pertubation\S1\Unperturbed_NoHarness.trc
DataRate	CameraRate	NumFrames	NumMarkers	Units	OrigDataRate	OrigDataStartFrame	OrigNumFrames	
100	100	9	18	m	100	3206	261
Frame#	Time	R_Thigh_Med			R_ASIS			R_Pelvis			V_Sacral			L_Pelvis			L_ASIS			Clavical			R_Acromium			L_Acromium			Sternum			Torso			R_Thigh_Lat			R_Thigh			R_Shank_Med			R_Shank_Lat			R_Shank			R_Heel			R_Toe			
		X1	Y1	Z1	X2	Y2	Z2	X3	Y3	Z3	X4	Y4	Z4	X5	Y5	Z5	X6	Y6	Z6	X7	Y7	Z7	X8	Y8	Z8	X9	Y9	Z9	X10	Y10	Z10	X11	Y11	Z11	X12	Y12	Z12	X13	Y13	Z13	X14	Y14	Z14	X15	Y15	Z15	X16	Y16	Z16	X17	Y17	Z17	X18	Y18	Z18	

3206	32.05	0.32528351	0.42311957	0.027929356	0.45876108	0.89690192	0.083422188	0.40792603	0.88747284	0.11968024	0.2875127	0.90190448	-0.028680868	0.38725598	0.90529944	-0.17832535	0.47476056	0.90336719	-0.11680762	0.4450885	1.2514532	-0.028583487	0.37799603	1.3216426	0.11980701	0.33194104	1.2748024	-0.2187718	0.42925696	1.2644277	0.073636559	0.44004642	1.2566614	-0.088013489	0.35108737	0.44038599	0.1543288	0.44513428	0.59977185	0.094536026	0.3140455	0.10192664	0.070462479	0.29055392	0.10029785	0.15086626	0.31262396	0.31095151	0.17094206	0.24444814	0.032781406	0.092061218	0.44981268	0.044009998	0.12112131
3207	32.06	0.32558307	0.42290469	0.028081272	0.45968814	0.89706171	0.083864044	0.41026419	0.88617896	0.11946503	0.28797244	0.90180304	-0.028650587	0.38758929	0.90519073	-0.17832979	0.47527008	0.9034068	-0.11675154	0.44472839	1.2513226	-0.028734062	0.37757458	1.3214661	0.11964642	0.3315939	1.2745449	-0.21879944	0.42892258	1.2643224	0.073467323	0.43971283	1.2565107	-0.088176834	0.35114203	0.44034494	0.15436681	0.44537637	0.59963757	0.094555237	0.31402328	0.10190276	0.070471764	0.29053488	0.10028175	0.15089354	0.31266138	0.31091687	0.17098181	0.2444404	0.03275967	0.092066376	0.44981021	0.044009048	0.12111832
3208	32.07	0.32621692	0.42242093	0.028366148	0.46041559	0.89718695	0.084180695	0.41174554	0.88545483	0.11936614	0.28836819	0.90169226	-0.028601511	0.387854	0.9050946	-0.1783362	0.47567615	0.90344391	-0.1167223	0.4443847	1.2511967	-0.028874056	0.37717657	1.3213187	0.11948601	0.33135403	1.2742421	-0.21891077	0.42859897	1.2642346	0.073310928	0.43939255	1.2563701	-0.08832766	0.35126077	0.44028363	0.15435904	0.44565771	0.59952106	0.094528931	0.31401514	0.10187846	0.070469887	0.29053815	0.1002674	0.15091133	0.31275189	0.31088104	0.17100018	0.24443648	0.032743591	0.092069176	0.44980905	0.044009071	0.12111593
3209	32.08	0.32720969	0.42163022	0.028650715	0.46085153	0.89724146	0.084279198	0.41261331	0.88513385	0.11934462	0.28870926	0.9015658	-0.028537395	0.38805646	0.90500958	-0.17834554	0.47596082	0.90346002	-0.11674173	0.44405823	1.2510793	-0.029004881	0.37680872	1.3212051	0.11932519	0.33119003	1.2739342	-0.21907686	0.42829193	1.2641681	0.073165672	0.43908334	1.2562437	-0.088466324	0.35142355	0.44020703	0.15431816	0.44596762	0.59941968	0.094465691	0.31401813	0.10185614	0.070459297	0.29055798	0.10025594	0.15092145	0.31287866	0.31084741	0.17100015	0.2444355	0.032732712	0.092070374	0.44980893	0.044010132	0.1211143
3210	32.09	0.32852097	0.42055197	0.028687521	0.46095148	0.8972052	0.084105331	0.41308224	0.88506165	0.11936261	0.2890058	0.90141888	-0.028463301	0.38820676	0.90493378	-0.17835835	0.47611996	0.90344403	-0.11682284	0.4437496	1.2509727	-0.029128347	0.37647653	1.3211263	0.11916383	0.33107452	1.2736519	-0.21927402	0.42800717	1.2641232	0.073028839	0.43878378	1.2561333	-0.08859375	0.35161108	0.4401207	0.15425842	0.44629065	0.59933032	0.094376862	0.31402905	0.10183754	0.070443016	0.29058734	0.10024835	0.1509259	0.31302499	0.31081906	0.17098601	0.24443657	0.032725994	0.092070465	0.44980951	0.044011986	0.12111335
3211	32.1	0.33004318	0.41926871	0.028264406	0.46074921	0.89708459	0.083672447	0.41331561	0.88511237	0.11938809	0.28926834	0.90125012	-0.028384592	0.38831796	0.9048656	-0.17837463	0.47617017	0.9033985	-0.11696303	0.44345901	1.2508763	-0.029246557	0.37618399	1.3210815	0.11900181	0.33098615	1.2734095	-0.21948259	0.42774857	1.2640975	0.072897675	0.43849329	1.2560385	-0.088711418	0.35180722	0.44002927	0.15419209	0.44661017	0.59924939	0.094275391	0.31404507	0.1018235	0.07042408	0.29061954	0.10024518	0.15092683	0.31317657	0.31079837	0.17096274	0.24443878	0.032722229	0.092069794	0.44981055	0.044014267	0.12111296
3212	32.11	0.33159637	0.41793585	0.027407606	0.46036734	0.896914	0.083069511	0.41343222	0.8851983	0.11940163	0.28950784	0.90106305	-0.028306358	0.38840451	0.90480402	-0.17839363	0.47615018	0.90333917	-0.11714315	0.44318585	1.2507887	-0.029361366	0.37593243	1.3210669	0.11883951	0.33090854	1.2732113	-0.21968774	0.42751657	1.2640875	0.072770172	0.43821078	1.2559573	-0.088820801	0.3520007	0.43993686	0.15412843	0.44691177	0.59917273	0.094173859	0.31406378	0.10181429	0.070405136	0.29064954	0.10024638	0.15092613	0.31332333	0.31078677	0.17093491	0.24444124	0.032720413	0.09206868	0.4498121	0.044016125	0.12111298
3213	32.12	0.33285443	0.41684528	0.026378586	0.45997397	0.8967392	0.082425858	0.41351941	0.88527039	0.11939937	0.28973474	0.90086481	-0.028232883	0.38848047	0.9047478	-0.17841408	0.47610938	0.90328656	-0.11733496	0.44292862	1.2507076	-0.029473888	0.37571994	1.3210757	0.11867851	0.33082883	1.2730564	-0.21988048	0.42730887	1.2640884	0.072645683	0.43793445	1.2558872	-0.088923103	0.35218604	0.43984799	0.15407451	0.4471861	0.59909711	0.094082245	0.31408374	0.10180944	0.070387924	0.29067444	0.10025133	0.15092543	0.31346048	0.31078409	0.17090672	0.24444331	0.032719917	0.092067413	0.44981473	0.044016254	0.12111311
3214	32.13	0.33335565	0.41641351	0.025440891	0.45970554	0.89659442	0.081850502	0.41363315	0.88530835	0.11938696	0.28995828	0.90066443	-0.02816703	0.38855807	0.90469556	-0.17843431	0.47608807	0.90325452	-0.11751314	0.44268524	1.2506315	-0.029584375	0.37554141	1.3210983	0.11852186	0.33073648	1.2729404	-0.22005646	0.42712094	1.2640951	0.072525032	0.43766266	1.2558252	-0.08901918	0.3523623	0.43976779	0.15403531	0.44742999	0.59902094	0.094006813	0.31410385	0.10180795	0.07037323	0.29069382	0.10025874	0.1509257	0.31358743	0.3107883	0.17088182	0.24444461	0.03272044	0.09206633	0.44981851	0.044014072	0.12111308
